<?xml version="1.0" standalone="no"?>
<!DOCTYPE svg PUBLIC "-//W3C//DTD SVG 20010904//EN"
 "http://www.w3.org/TR/2001/REC-SVG-20010904/DTD/svg10.dtd">
<svg version="1.0" xmlns="http://www.w3.org/2000/svg"
 width="297.000000pt" height="124.000000pt" viewBox="0 0 297.000000 124.000000"
 preserveAspectRatio="xMidYMid meet">

<g transform="translate(0.000000,124.000000) scale(0.100000,-0.100000)"
fill="#000000" stroke="none">
<path d="M0 620 l0 -620 1485 0 1485 0 0 620 0 620 -1485 0 -1485 0 0 -620z
m2915 10 l0 -575 -1435 0 -1435 0 -3 565 c-1 311 0 571 3 578 3 10 296 12
1437 10 l1433 -3 0 -575z"/>
<path d="M980 595 l0 -455 25 0 25 0 0 455 0 455 -25 0 -25 0 0 -455z"/>
<path d="M2000 575 l0 -475 25 0 25 0 0 475 0 475 -25 0 -25 0 0 -475z"/>
<path d="M200 594 l0 -416 188 4 c161 4 194 7 240 25 114 46 162 109 162 211
0 49 -5 66 -29 99 -17 23 -49 50 -76 63 l-47 23 46 29 c98 64 117 208 38 291
-64 68 -145 87 -362 87 l-160 0 0 -416z m365 261 c80 -39 70 -146 -18 -186
-30 -13 -65 -19 -124 -19 l-83 0 0 110 0 110 96 0 c66 0 106 -5 129 -15z m2
-335 c88 -40 93 -140 10 -183 -30 -15 -60 -20 -135 -21 l-97 -1 -3 113 -3 112
93 0 c70 0 103 -5 135 -20z"/>
<path d="M1467 1000 c-59 -15 -91 -36 -135 -85 -51 -58 -69 -125 -52 -192 22
-91 58 -122 223 -194 158 -69 200 -124 147 -192 -55 -69 -191 -61 -341 20 -4
2 -18 -24 -32 -59 -30 -73 -29 -74 62 -109 170 -64 344 -42 429 55 33 38 52
90 52 145 0 95 -56 169 -169 222 -36 17 -98 46 -137 65 -83 39 -102 66 -88
121 20 79 103 101 228 59 43 -15 80 -25 81 -24 1 2 12 28 23 60 16 43 18 59 9
66 -46 36 -225 61 -300 42z"/>
<path d="M2290 595 l0 -415 270 0 270 0 0 65 0 65 -195 0 -195 0 0 350 0 350
-75 0 -75 0 0 -415z"/>
</g>
</svg>
